# xmcd
# 
# Track frame offsets:
#     150
#     16806
#     31068
#     50355
#     63651
#     80113
#     99244
#     109557
#     128424
#     142749
#     156460
#     170210
# 
# Disc length: 2715
# 
# Revision: 2
# Processed by: cddbd v1.5.2PL0 Copyright (c) Steve Scherf et al.
# Submitted via: fre:ac v1.0.17
# 
DISCID=930a990c
DTITLE=Claude Nougaro - La note bleue
DYEAR=2004
DGENRE=Jazz
TTITLE0=Eau douce
TTITLE1=Dansez sur moi (avec David Lynx)
TTITLE2=Bonheur
TTITLE3=Armstrong (Instrumental)
TTITLE4=Herbie Hancock
TTITLE5=L'espérance en l'homme
TTITLE6=Les chenilles 
TTITLE7=Autour de minuit (avec Natalie Dessay)
TTITLE8=Bidonville (Instrumental)
TTITLE9=Fleur bleue
TTITLE10=Les mots (chanté par David Lynx)
TTITLE11=Toulouse (Instrumental)
EXTD=YEAR: 2004
EXTT0=
EXTT1=
EXTT2=
EXTT3=
EXTT4=
EXTT5=
EXTT6=
EXTT7=
EXTT8=
EXTT9=
EXTT10=
EXTT11=
PLAYORDER=
